<?xml version="1.0" encoding="utf-8"?>
<!-- Generator: Adobe Illustrator 27.2.0, SVG Export Plug-In . SVG Version: 6.00 Build 0)  -->
<svg version="1.1" id="Layer_1" xmlns="http://www.w3.org/2000/svg" xmlns:xlink="http://www.w3.org/1999/xlink" x="0px" y="0px"
	 viewBox="0 0 2500 2500" style="enable-background:new 0 0 2500 2500;" xml:space="preserve">
<style type="text/css">
	.st0{fill:#FFFFFF;}
</style>
<g>
	<path class="st0" d="M1617,570.2c-172.1,0-312.1,140-312.1,312.1v311.2h2.2v0.9H1617h0c172.1,0,312.1-140,312.1-312.1
		S1789.1,570.2,1617,570.2z"/>
	<path class="st0" d="M1250,0C559.9,0,0.5,559.2,0,1249.2v967.3C0.4,2373.1,127.4,2500,284.2,2500h966.3
		C1940.6,2499.7,2500,1940.2,2500,1250C2500,559.7,1940.3,0,1250,0z M1617,1468.7h-309.9V1780c0,323.3-263,586.4-586.4,586.4
		S134.3,2103.3,134.3,1780c0-323.3,263-586.4,586.4-586.4h309.9V882.3c0-323.3,263-586.4,586.4-586.4l0,0
		c323.3,0,586.4,263,586.4,586.4C2203.4,1205.7,1940.3,1468.7,1617,1468.7z"/>
	<path class="st0" d="M1030.6,1467.9H720.7c-172.1,0-312.1,140-312.1,312.1c0,172.1,140,312.1,312.1,312.1s312.1-140,312.1-312.1
		v-311.2h-2.2V1467.9z"/>
</g>
</svg>
