<?xml version="1.0" encoding="utf-8"?>
<!-- Generator: Adobe Illustrator 27.2.0, SVG Export Plug-In . SVG Version: 6.00 Build 0)  -->
<svg version="1.1" id="Layer_1" xmlns="http://www.w3.org/2000/svg" xmlns:xlink="http://www.w3.org/1999/xlink" x="0px" y="0px"
	 viewBox="0 0 458.8 688.4" style="enable-background:new 0 0 458.8 688.4;" xml:space="preserve">
<style type="text/css">
	.st0{fill:#FFFFFF;}
</style>
<path class="st0" d="M344.1,229.4c-60.9,0-110.6,47.4-114.5,107.1V229.6v-0.3H344.1c63.2,0,114.8-51.3,114.8-114.8
	c0-63.2-51.3-114.8-114.8-114.8H229.4v0.3H114.9C51.4,0.1,0.1,51.3,0.1,114.8c0,61.4,48.4,111.8,109.4,114.6
	c-61,2.8-109.4,53.2-109.4,114.6s48.4,111.8,109.4,114.6C48.5,461.6,0.1,512,0.1,573.4v0c0,63.5,51.3,114.8,114.8,114.8
	s114.8-51.5,114.8-114.8V458.9v-0.3V351.8c3.9,59.7,53.8,107.1,114.5,107.1c63.5,0,114.8-51.5,114.8-114.8
	C458.9,280.6,407.4,229.4,344.1,229.4z"/>
</svg>
