<?xml version="1.0" encoding="utf-8"?>
<!-- Generator: Adobe Illustrator 27.2.0, SVG Export Plug-In . SVG Version: 6.00 Build 0)  -->
<svg version="1.1" id="Layer_1" xmlns="http://www.w3.org/2000/svg" xmlns:xlink="http://www.w3.org/1999/xlink" x="0px" y="0px"
	 viewBox="0 0 2500 2432" style="enable-background:new 0 0 2500 2432;" xml:space="preserve">
<style type="text/css">
	.st0{fill:#FFFFFF;}
</style>
<g>
	<path class="st0" d="M1245.2,0C557.6,0,0,557.5,0,1245.2c0,550.2,356.8,1016.9,851.5,1181.5c62.2,11.5,85.1-27,85.1-59.9
		c0-29.7-1.2-127.8-1.7-231.8c-346.4,75.3-419.5-146.9-419.5-146.9c-56.6-143.9-138.3-182.2-138.3-182.2
		c-113-77.3,8.5-75.7,8.5-75.7c125,8.8,190.9,128.3,190.9,128.3c111.1,190.4,291.3,135.3,362.3,103.5
		c11.2-80.5,43.4-135.4,79.1-166.5c-276.6-31.5-567.3-138.3-567.3-615.4c0-135.9,48.6-247,128.3-334.2
		c-12.9-31.4-55.5-158,12.1-329.5c0,0,104.6-33.5,342.5,127.6c99.3-27.6,205.8-41.4,311.7-41.9c105.8,0.5,212.4,14.3,311.9,41.9
		c237.7-161.1,342.1-127.6,342.1-127.6c67.8,171.5,25.1,298.2,12.2,329.5c79.8,87.2,128.1,198.3,128.1,334.2
		c0,478.2-291.3,583.6-568.6,614.4c44.7,38.6,84.5,114.4,84.5,230.6c0,166.6-1.4,300.7-1.4,341.7c0,33.1,22.4,72,85.5,59.7
		c494.5-164.8,850.8-631.4,850.8-1181.4C2490.3,557.5,1932.8,0,1245.2,0"/>
	<path class="st0" d="M466.4,1773.8c-2.7,6.2-12.5,8-21.3,3.8c-9-4.1-14.1-12.5-11.2-18.7c2.7-6.4,12.4-8.1,21.4-3.9
		C464.3,1759,469.5,1767.6,466.4,1773.8 M527.6,1828.4c-5.9,5.5-17.5,2.9-25.4-5.8c-8.1-8.7-9.7-20.3-3.6-25.9
		c6.1-5.5,17.4-2.9,25.5,5.8C532.2,1811.3,533.8,1822.9,527.6,1828.4 M569.6,1898.3c-7.6,5.3-20.1,0.3-27.8-10.7
		c-7.6-11.1-7.6-24.3,0.2-29.7c7.7-5.3,20-0.5,27.8,10.4C577.4,1879.6,577.4,1892.9,569.6,1898.3 M640.7,1979.3
		c-6.8,7.5-21.4,5.5-32-4.8c-10.9-10-13.9-24.3-7.1-31.8c6.9-7.5,21.5-5.4,32.2,4.8C644.7,1957.5,648,1971.9,640.7,1979.3
		 M732.5,2006.7c-3,9.7-17,14.2-31.1,10c-14.1-4.3-23.3-15.7-20.5-25.5c2.9-9.8,17-14.4,31.2-10
		C726.2,1985.4,735.5,1996.7,732.5,2006.7 M837.1,2018.3c0.4,10.3-11.6,18.8-26.4,19c-14.9,0.3-26.9-8-27.1-18.1
		c0-10.4,11.7-18.8,26.6-19.1C824.9,1999.8,837.1,2008.1,837.1,2018.3 M939.7,2014.3c1.8,10-8.5,20.3-23.2,23
		c-14.5,2.6-27.8-3.5-29.7-13.5c-1.8-10.3,8.7-20.6,23.1-23.2C924.7,1998.1,937.9,2004.1,939.7,2014.3"/>
</g>
</svg>
