<?xml version="1.0" encoding="utf-8"?>
<!-- Generator: Adobe Illustrator 27.2.0, SVG Export Plug-In . SVG Version: 6.00 Build 0)  -->
<svg version="1.1" id="Layer_1" xmlns="http://www.w3.org/2000/svg" xmlns:xlink="http://www.w3.org/1999/xlink" x="0px" y="0px"
	 viewBox="0 0 2500 2404" style="enable-background:new 0 0 2500 2404;" xml:space="preserve">
<style type="text/css">
	.st0{fill:#FFFFFF;}
</style>
<path class="st0" d="M2496.4,1150.1L2496.4,1150.1c-1.4-29.9-4.8-59.6-10.3-88.9c-6.9-37.3-17.2-73.9-30.8-109.4l-3.4-9.1
	L2112.3,56.5c-1.7-4.3-3.7-8.5-6-12.5c-2.4-4-5.1-7.8-8.1-11.4c-2.9-3.6-6.2-6.9-9.6-9.9c-3.5-3.1-7.2-5.9-11.2-8.3
	c-7.8-4.9-16.4-8.6-25.2-10.9c-9.1-2.3-18.2-3.1-27.6-2.6c-9.1,0.5-18.2,2.3-27.1,5.5c-8.6,3.4-16.7,7.8-23.9,13.5
	c-3.6,2.9-7,6.2-10.1,9.6c-3.1,3.5-5.9,7.1-8.3,10.9c-2.6,4-4.9,8.1-6.8,12.2c-2.1,4.2-3.7,8.5-4.9,13l-229.2,701.8H786.3
	L557.1,65.6c-1.2-4.5-2.8-8.8-4.7-13c-1.9-4.3-4.2-8.4-6.8-12.2c-2.4-4-5.2-7.7-8.3-11.2c-3.3-3.3-6.7-6.4-10.1-9.4
	c-7.3-5.7-15.6-10.4-24.2-13.5c-8.6-3.4-17.7-5.2-27.1-5.7C466.8,0,457.4,1,448.6,3.4c-9.1,2.1-17.4,5.7-25.5,10.7
	c-3.8,2.6-7.5,5.4-10.9,8.3c-3.5,3.1-6.7,6.5-9.6,10.1c-3.1,3.5-5.8,7.2-8.1,11.2c-2.4,4-4.5,8.2-6.2,12.5l-340.1,886l0,0
	c0,0,0,0,0,0l-3.4,9.1c-24.2,63.5-38,130.4-41.1,198.3c-2.9,67.9,5.2,135.8,23.9,201.1c18.7,65.3,47.9,127.2,86.4,183.2
	c38.5,55.9,85.6,105.4,140,146.2l1,1l3.1,2.1l517,387.4l0,0l0,0l0.3,0.3c-0.2,0.2-0.3,0.3-0.3,0.3l255.8,193.9l155.9,117.6
	c9.1,7,19.3,12.2,29.9,15.9c10.7,3.6,22.1,5.5,33.3,5.5c11.4,0,22.9-1.8,33.6-5.5c10.7-3.6,20.8-8.8,29.9-15.9l155.9-117.6
	l255.8-193.9c0,0,0,0-0.1-0.1l520-389.7l1.3-1c54.1-40.9,101.2-90.3,139.7-146.2c38.5-55.9,67.7-117.9,86.4-183.2
	C2491.2,1285.7,2499.2,1217.7,2496.4,1150.1z"/>
</svg>
