<?xml version="1.0" encoding="utf-8"?>
<!-- Generator: Adobe Illustrator 27.2.0, SVG Export Plug-In . SVG Version: 6.00 Build 0)  -->
<svg version="1.1" id="Layer_1" xmlns="http://www.w3.org/2000/svg" xmlns:xlink="http://www.w3.org/1999/xlink" x="0px" y="0px"
	 viewBox="0 0 2500 2438" style="enable-background:new 0 0 2500 2438;" xml:space="preserve">
<style type="text/css">
	.st0{fill:#FFFFFF;}
</style>
<g>
	<path class="st0" d="M2057.3,0.2H442.7C197.9,0.2,0,198.2,0,443V1995c0,244.8,197.9,442.7,442.7,442.7h1614.6
		c244.8,0,442.7-197.9,442.7-442.7V443C2500,198.2,2302.1,0.2,2057.3,0.2z M908.3,1710.7c0,11.5-5.2,16.7-14.6,16.7H689.6
		c-9.4,0-13.5-5.2-13.5-16.7V637.8c0-9.4,5.2-13.5,14.6-13.5h203.1c6.2-1,12.5,3.1,13.5,10.4c1,1,1,2.1,1,3.1V1710.7z
		 M1840.6,1675.3c-54.2,22.9-111.5,39.6-169.8,50c-52.1,9.4-106.2,14.6-160.4,14.6l0,0c-77.1,1-154.2-14.6-224-46.9
		c-65.6-30.2-119.8-80.2-157.3-141.7c-38.5-63.5-57.3-142.7-57.3-237.5c-1-77.1,18.8-153.1,57.3-219.8
		c39.6-67.7,96.9-124,165.6-161.5c72.9-40.6,160.4-60.4,263.5-60.4c5.2,0,12.5,0,21.9,1c9.4,1,19.8,1,32.3,2.1V546.1
		c0-7.3,3.1-11.5,10.4-11.5h211.5c5.2-1,9.4,3.1,10.4,7.3v993.8c0,18.8,1,39.6,2.1,62.5c2.1,21.9,3.1,42.7,4.2,60.4
		C1851,1665.9,1847.9,1672.1,1840.6,1675.3z"/>
	<path class="st0" d="M1550,1065.9c-40.6,0-81.2,8.3-117.7,27.1c-35.4,17.7-65.6,43.8-88.5,77.1c-22.9,33.3-34.4,78.1-34.4,132.3
		c-1,36.5,5.2,72.9,17.7,107.3c10.4,28.1,26,53.1,46.9,74c19.8,18.8,43.8,33.3,70.8,41.7c28.1,9.4,57.3,13.5,86.5,13.5
		c15.6,0,30.2-1,43.8-2.1c13.5,1,26-1,37.5-5.2v0v-458.3c-9.4-2.1-18.8-4.2-28.1-5.2C1572.9,1066.9,1561.5,1065.9,1550,1065.9z"/>
</g>
</svg>
