<?xml version="1.0" encoding="utf-8"?>
<!-- Generator: Adobe Illustrator 27.2.0, SVG Export Plug-In . SVG Version: 6.00 Build 0)  -->
<svg version="1.1" id="ELEMENTS" xmlns="http://www.w3.org/2000/svg" xmlns:xlink="http://www.w3.org/1999/xlink" x="0px" y="0px"
	 viewBox="0 0 29.2 29.2" style="enable-background:new 0 0 29.2 29.2;" xml:space="preserve">
<style type="text/css">
	.st0{fill:#FFFFFF;}
</style>
<g>
	<path class="st0" d="M20.7,7.2c-0.8,0-1.4,0.6-1.4,1.3s0.6,1.4,1.4,1.4s1.4-0.6,1.4-1.4S21.5,7.2,20.7,7.2z"/>
	<path class="st0" d="M14.7,8.9c-3.1,0-5.7,2.5-5.7,5.7s2.5,5.7,5.7,5.7s5.7-2.5,5.7-5.7S17.8,8.9,14.7,8.9z M14.7,18.2
		c-2,0-3.6-1.6-3.6-3.6s1.6-3.6,3.6-3.6s3.6,1.6,3.6,3.6S16.7,18.2,14.7,18.2z"/>
	<path class="st0" d="M19.2,26.1H10c-3.8,0-6.9-3.1-6.9-6.9V10c0-3.8,3.1-6.9,6.9-6.9h9.2c3.8,0,6.9,3.1,6.9,6.9v9.2
		C26.1,23,23,26.1,19.2,26.1z M10,5.3c-2.6,0-4.8,2.1-4.8,4.8v9.2c0,2.6,2.1,4.8,4.8,4.8h9.2c2.6,0,4.8-2.1,4.8-4.8V10
		c0-2.6-2.1-4.8-4.8-4.8C19.2,5.3,10,5.3,10,5.3z"/>
</g>
</svg>
