<?xml version="1.0" encoding="utf-8"?>
<!-- Generator: Adobe Illustrator 27.2.0, SVG Export Plug-In . SVG Version: 6.00 Build 0)  -->
<svg version="1.1" id="ELEMENTS" xmlns="http://www.w3.org/2000/svg" xmlns:xlink="http://www.w3.org/1999/xlink" x="0px" y="0px"
	 viewBox="0 0 29.2 29.2" style="enable-background:new 0 0 29.2 29.2;" xml:space="preserve">
<style type="text/css">
	.st0{fill:#FFFFFF;}
</style>
<g>
	<path class="st0" d="M5.9,11.6h3.8v12.2H5.9C5.9,23.8,5.9,11.6,5.9,11.6z M7.8,5.5c1.2,0,2.2,1,2.2,2.2c0,1.2-1,2.2-2.2,2.2
		c-1.2,0-2.2-1-2.2-2.2S6.6,5.5,7.8,5.5"/>
	<path class="st0" d="M11.8,11.6h3.6v1.7h0.1c0.5-1,1.8-2,3.6-2c3.9,0,4.6,2.5,4.6,5.8v6.7h-3.8v-5.9c0-1.4,0-3.2-2-3.2
		c-2,0-2.3,1.5-2.3,3.1v6h-3.8C11.8,23.8,11.8,11.6,11.8,11.6z"/>
</g>
</svg>
