<?xml version="1.0" encoding="utf-8"?>
<!-- Generator: Adobe Illustrator 27.2.0, SVG Export Plug-In . SVG Version: 6.00 Build 0)  -->
<svg version="1.1" id="ELEMENTS" xmlns="http://www.w3.org/2000/svg" xmlns:xlink="http://www.w3.org/1999/xlink" x="0px" y="0px"
	 viewBox="0 0 29.2 29.2" style="enable-background:new 0 0 29.2 29.2;" xml:space="preserve">
<style type="text/css">
	.st0{fill:#FFFFFF;}
</style>
<path class="st0" d="M25.2,7.9c-0.7,0.3-1.4,0.5-2.2,0.6c0.4-0.1,0.9-0.7,1.1-0.9c0.3-0.4,0.6-0.8,0.7-1.3c0,0,0-0.1,0-0.1
	c0,0-0.1,0-0.1,0c-0.8,0.4-1.7,0.8-2.6,1c-0.1,0-0.1,0-0.2-0.1C21.9,7,21.9,7,21.8,6.9c-0.4-0.3-0.8-0.6-1.2-0.8
	c-0.6-0.2-1.3-0.3-1.9-0.3c-0.6,0-1.2,0.2-1.8,0.5S15.8,7,15.4,7.5c-0.4,0.5-0.7,1.1-0.9,1.8c-0.1,0.6-0.1,1.2-0.1,1.8
	c0,0.1,0,0.1-0.1,0.1c-3.5-0.5-6.4-1.8-8.8-4.5c-0.1-0.1-0.2-0.1-0.2,0C4.2,8.3,4.7,10.8,6,12c0.2,0.2,0.3,0.3,0.5,0.5
	c-0.1,0-0.9-0.1-1.7-0.5c-0.1-0.1-0.2,0-0.2,0.1c0,0.2,0,0.3,0,0.5c0.2,1.6,1.3,3,2.8,3.6c0.2,0.1,0.4,0.1,0.6,0.2
	c-0.3,0.1-0.7,0.1-1.7,0c-0.1,0-0.2,0-0.1,0.1c0.7,2,2.3,2.6,3.5,2.9c0.2,0,0.3,0,0.5,0.1c0,0,0,0,0,0c-0.4,0.6-1.8,1-2.4,1.3
	c-1.2,0.4-2.4,0.6-3.6,0.5c-0.2,0-0.2,0-0.3,0s0,0.1,0.1,0.1c0.2,0.2,0.5,0.3,0.8,0.5c0.8,0.4,1.6,0.7,2.4,1
	c4.4,1.2,9.3,0.3,12.6-2.9c2.6-2.6,3.5-6.1,3.5-9.6c0-0.1,0.2-0.2,0.3-0.3c0.7-0.5,1.2-1.1,1.7-1.8C25.3,8.1,25.3,8,25.2,7.9
	C25.3,7.9,25.3,7.9,25.2,7.9C25.3,7.9,25.3,7.9,25.2,7.9z"/>
</svg>
