<?xml version="1.0" encoding="utf-8"?>
<!-- Generator: Adobe Illustrator 27.2.0, SVG Export Plug-In . SVG Version: 6.00 Build 0)  -->
<svg version="1.1" id="Layer_1" xmlns="http://www.w3.org/2000/svg" xmlns:xlink="http://www.w3.org/1999/xlink" x="0px" y="0px"
	 viewBox="0 0 2500 2500" style="enable-background:new 0 0 2500 2500;" xml:space="preserve">
<style type="text/css">
	.st0{fill:#FFFFFF;}
</style>
<path class="st0" d="M1249.6,0C560.9,0,2.6,558.3,2.6,1246.9c0,688.6,558.2,1246.9,1246.9,1246.9
	c688.7,0,1246.9-558.3,1246.9-1246.9C2496.5,558.3,1938.2,0,1249.6,0z M1529.3,429.4c46-79.6,147.8-106.9,227.4-61
	c79.6,46,106.9,147.8,60.9,227.4c-45.9,79.6-147.7,106.9-227.3,60.9h0C1510.7,610.7,1483.4,509,1529.3,429.4z M1249.5,523.7
	c65.3,0,130.3,8.9,193.2,26.3c10.8,66.9,50.5,128.5,113.9,165.1c63.2,36.4,136.3,40.1,199.6,16.2
	c123.1,121.1,203.2,285.7,214.9,469.1l-237.2,3.5c-21.9-248.4-230.3-443.2-484.3-443.2h0c-70.8-0.1-140.7,15.4-204.8,45.2L929,598.5
	C1028.7,549.2,1138.4,523.6,1249.5,523.7z M401.7,1413.4c-92,0-166.5-74.5-166.5-166.5c0-92,74.5-166.5,166.5-166.5l0,0
	c91.9,0,166.5,74.5,166.5,166.5C568.2,1338.8,493.6,1413.4,401.7,1413.4z M549.3,1428.2c52.6-42.9,86.2-108.2,86.2-181.3
	c0-73.2-33.6-138.5-86.2-181.3c45-174.2,153.4-323,299.1-420.4L970,849c-125,88-206.7,233.4-206.7,397.9h0
	c0,164.5,81.7,309.9,206.7,397.8l-121.7,203.9C702.6,1751.3,594.3,1602.5,549.3,1428.2z M1756.7,2125.3
	c-79.6,46-181.4,18.7-227.3-60.9c-46-79.6-18.7-181.3,60.9-227.3c79.6-45.9,181.4-18.6,227.3,60.9
	C1863.6,1977.6,1836.3,2079.3,1756.7,2125.3z M1756.2,1762.5c-63.3-23.9-136.4-20.3-199.6,16.2c-63.3,36.6-103,98.2-113.8,165.1
	c-62.9,17.5-127.9,26.3-193.2,26.3c-111.2,0.1-220.9-25.5-320.5-74.9l115.7-207.3c64.2,29.9,134.1,45.3,204.8,45.2l0,0
	c254,0,462.5-194.7,484.3-443.2l237.3,3.5C1959.4,1476.9,1879.3,1641.5,1756.2,1762.5z"/>
</svg>
