<?xml version="1.0" encoding="utf-8"?>
<!-- Generator: Adobe Illustrator 27.2.0, SVG Export Plug-In . SVG Version: 6.00 Build 0)  -->
<svg version="1.1" id="Layer_1" xmlns="http://www.w3.org/2000/svg" xmlns:xlink="http://www.w3.org/1999/xlink" x="0px" y="0px"
	 viewBox="0 0 2500 2455" style="enable-background:new 0 0 2500 2455;" xml:space="preserve">
<style type="text/css">
	.st0{fill:#FFFFFF;}
</style>
<path class="st0" d="M2477.6,2053.8V398.7c0-72.7-74.5-97.9-74.5-97.9l-487.5-235C1809.1,0,1739.3,77.7,1739.3,77.7
	s9.3-6.7,23.4-11.7c-7.3,2.8-15.1,6.7-23.4,11.7L779.2,951.5L346.1,623.6c-50.1-43.4-97.4,6.4-97.4,6.4L83.3,778
	c-71,57-11.8,99.6-11.8,99.6L465,1234.9L71.4,1592.7c0,0-40.4,30.1,0,83.8l182.7,166.2c0,0,43.4,46.6,107.5-6.4L778.9,1520
	l977.9,888l3.8,4.1c41.9,42.9,92.7,28.9,92.7,28.9l562.5-277.2C2487.7,2114.7,2477.6,2053.8,2477.6,2053.8z M1873,690.3v1089.3
	l-716.3-542.3L1873,690.3z"/>
</svg>
